<svg width="169" height="205" viewBox="0 0 169 205" fill="none" xmlns="http://www.w3.org/2000/svg">
<mask id="mask0_199_5517" style="mask-type:alpha" maskUnits="userSpaceOnUse" x="0" y="0" width="169" height="205">
<rect width="169" height="204.293" rx="10" fill="#D9D9D9"/>
</mask>
<g mask="url(#mask0_199_5517)">
<path fill-rule="evenodd" clip-rule="evenodd" d="M149.582 51.8695C144.904 54.7928 138.717 53.4466 135.787 48.7584L126.267 33.5233C118.861 21.6717 129.691 6.83516 143.263 9.87022L146.244 10.5368C147.014 10.7091 147.799 10.2208 147.985 9.45469L147.987 9.44739L148.695 6.47594C151.916 -7.05258 169.999 -10.2824 177.404 1.56916L186.924 16.8043C189.854 21.4925 188.352 27.6435 183.673 30.5667L149.582 51.8695Z" fill="#F9FAF3"/>
<path fill-rule="evenodd" clip-rule="evenodd" d="M147.985 9.45469C147.799 10.2208 147.014 10.7091 146.244 10.5368L143.263 9.87022C129.691 6.83516 118.861 21.6717 126.267 33.5233L135.787 48.7584C138.717 53.4466 144.904 54.7928 149.582 51.8695L183.673 30.5667C188.352 27.6435 189.854 21.4925 186.924 16.8043L177.404 1.56916C169.999 -10.2824 151.916 -7.05258 148.695 6.47594L147.987 9.44739L147.985 9.45469ZM146.012 11.5741L143.031 10.9075L143.263 9.87022L143.031 10.9075C130.345 8.07046 120.282 21.939 127.168 32.96L136.688 48.1952C139.299 52.373 144.825 53.5882 149.019 50.9681L183.11 29.6654C187.303 27.0452 188.634 21.5454 186.023 17.3676L176.503 2.13241C169.616 -8.88859 152.74 -5.92369 149.729 6.72216L148.734 6.4853L149.729 6.72218L149.023 9.68745L149.021 9.69363L149.021 9.69475L149.018 9.70628L149.018 9.70626C148.694 11.0348 147.347 11.8728 146.012 11.5741C146.012 11.5741 146.012 11.5741 146.012 11.5741Z" fill="#F9FAF3"/>
<path fill-rule="evenodd" clip-rule="evenodd" d="M144.222 127.563C146.658 130.365 146.415 134.62 143.606 137.061L134.481 144.994C127.382 151.165 116.379 145.528 116.968 136.186L117.097 134.134C117.13 133.604 116.723 133.134 116.194 133.09L116.189 133.09L114.139 132.932C104.807 132.215 100.756 120.535 107.855 114.364L116.98 106.431C119.788 103.99 124.035 104.341 126.471 107.143L144.222 127.563Z" fill="#F9FAF3"/>
<path fill-rule="evenodd" clip-rule="evenodd" d="M116.281 132.031L116.281 132.031C117.387 132.122 118.228 133.093 118.158 134.201C118.158 134.201 118.158 134.201 118.158 134.201L118.028 136.253L116.968 136.186L117.097 134.134C117.13 133.604 116.723 133.134 116.194 133.09L116.189 133.09L114.139 132.932C104.807 132.215 100.756 120.535 107.855 114.364L116.98 106.431C119.788 103.99 124.035 104.341 126.471 107.143L144.222 127.563C146.658 130.365 146.415 134.62 143.606 137.061L134.481 144.994C127.382 151.165 116.379 145.528 116.968 136.186L118.028 136.253C117.497 144.689 127.424 149.72 133.784 144.192L142.909 136.259C145.263 134.213 145.48 130.631 143.42 128.261L125.669 107.841C123.608 105.47 120.031 105.187 117.677 107.233L108.552 115.166C102.192 120.694 105.793 131.225 114.221 131.873L114.221 131.873L116.264 132.03L116.269 132.03L116.271 132.03L116.281 132.031Z" fill="#F9FAF3"/>
<path fill-rule="evenodd" clip-rule="evenodd" d="M37.3784 62.8693C37.0192 64.5592 35.3701 65.6601 33.6767 65.3001L28.1736 64.1304C23.8927 63.2205 22.9064 57.5533 26.5425 55.1562L27.3412 54.6297C27.5475 54.4937 27.6083 54.2107 27.4763 54.002L27.475 54L26.9596 53.1942C24.6128 49.5254 27.8189 44.7494 32.0998 45.6593L37.6028 46.829C39.2962 47.1889 40.355 48.8655 39.9958 50.5553L37.3784 62.8693Z" fill="#F9FAF3"/>
<path fill-rule="evenodd" clip-rule="evenodd" d="M27.1275 56.0437C24.249 57.9413 25.0717 62.3844 28.3946 63.0907L33.8976 64.2605C35.0024 64.4953 36.0985 63.7786 36.3387 62.6484L38.9562 50.3343C39.1964 49.204 38.4865 48.1035 37.3818 47.8687L31.8788 46.6989C28.5558 45.9926 25.9971 49.717 27.8549 52.6214L28.3683 53.424L28.3747 53.4338C28.816 54.1317 28.6164 55.0621 27.9262 55.5171C27.9262 55.5172 27.9262 55.5171 27.9262 55.5171L27.1275 56.0437ZM27.3412 54.6297L26.5425 55.1562C22.9064 57.5533 23.8927 63.2205 28.1736 64.1304L33.6767 65.3001C35.3701 65.6601 37.0192 64.5592 37.3784 62.8693L39.9958 50.5553C40.355 48.8655 39.2962 47.1889 37.6028 46.829L32.0998 45.6593C27.8189 44.7494 24.6128 49.5254 26.9596 53.1942L27.475 54L27.4763 54.002C27.6083 54.2107 27.5475 54.4937 27.3412 54.6297Z" fill="#F9FAF3"/>
<path fill-rule="evenodd" clip-rule="evenodd" d="M45.0702 114.449C46.2841 114.054 47.5978 114.703 47.993 115.919L49.2775 119.873C50.2767 122.948 47.0149 125.673 44.138 124.231L43.5061 123.915C43.3428 123.833 43.1392 123.899 43.0545 124.06L43.0537 124.062L42.7285 124.689C41.248 127.546 37.0077 127.259 36.0084 124.184L34.724 120.231C34.3287 119.014 35.0103 117.718 36.2242 117.323L45.0702 114.449Z" fill="#F9FAF3"/>
<path fill-rule="evenodd" clip-rule="evenodd" d="M44.614 123.281L44.614 123.281C46.6797 124.316 48.9632 122.345 48.2666 120.201L46.9822 116.248C46.7729 115.604 46.0685 115.242 45.3987 115.46L36.5526 118.334C35.8828 118.552 35.5256 119.258 35.7348 119.902L37.0193 123.856C37.7159 125.999 40.7218 126.252 41.7848 124.2L41.7848 124.2L42.1085 123.576L42.1133 123.566L42.1133 123.566C42.4671 122.892 43.3007 122.623 43.9821 122.965L44.614 123.281ZM43.0537 124.062L42.7285 124.689C41.248 127.546 37.0077 127.259 36.0084 124.184L34.724 120.231C34.3287 119.014 35.0103 117.718 36.2242 117.323L45.0702 114.449C46.2841 114.054 47.5978 114.703 47.993 115.919L49.2775 119.873C50.2767 122.948 47.0149 125.673 44.138 124.231L43.5061 123.915C43.3428 123.833 43.1392 123.899 43.0545 124.06L43.0537 124.062Z" fill="#F9FAF3"/>
</g>
</svg>
