<svg width="68" height="32" viewBox="0 0 68 32" fill="none" xmlns="http://www.w3.org/2000/svg">
<path fill-rule="evenodd" clip-rule="evenodd" d="M66.4449 4.28855C65.7786 4.48877 64.5478 4.83483 62.6327 5.00813C61.1042 5.14712 58.6817 5.06355 58.611 5.06355C51.9352 5.07305 50.1815 9.22622 50.1815 11.7592C50.1815 13.0129 50.5564 14.4739 51.5977 15.6808C50.9473 16.2936 50.0624 17.4333 50.0624 19.0982C50.0624 21.274 51.4506 22.3898 51.4506 22.3898C51.4506 22.3898 49.951 24.1488 49.951 26.3141C49.951 30.4257 53.1777 32 58.6107 32C63.7139 32 67.2794 30.2945 67.2794 26.0614C67.2794 21.5516 64.2067 19.8433 60.6842 19.8433C59.774 19.8433 56.768 19.8426 55.6924 19.8426C55.0745 19.8426 54.4656 19.322 54.4656 18.6082C54.4656 18.2009 54.6484 17.9032 54.8884 17.687C55.8457 17.9657 56.9791 18.1269 58.3169 18.1269H58.9034C65.2995 18.1269 67.039 14.4595 67.039 11.7592C67.039 10.8114 66.7931 9.63632 66.136 8.53654C66.7334 8.37961 67.2487 8.22531 67.6006 8.0719C67.844 7.96616 68.0672 7.71826 67.9812 7.37994C67.7485 6.46911 67.246 4.82094 67.2147 4.70675C67.1398 4.43722 66.8504 4.16663 66.4449 4.28855ZM55.9341 11.6C55.9341 9.52655 57.2556 8.39862 58.7072 8.39C60.1585 8.39862 61.2864 9.52655 61.2864 11.6C61.2864 13.5328 60.2073 14.7895 58.61 14.7962C57.0133 14.7895 55.9341 13.5328 55.9341 11.6ZM60.0289 23.7851C61.4688 23.7851 62.1565 24.7169 62.1565 25.899C62.1565 26.9694 61.5961 28.164 58.7692 28.164C55.8381 28.164 55.2825 27.0889 55.2825 26.1522C55.2825 24.621 56.1917 23.7876 56.1917 23.7876C56.1917 23.7876 57.5759 23.7851 60.0289 23.7851ZM47.0414 4.28855C46.375 4.48877 45.1443 4.83483 43.2291 5.00813C41.7006 5.14712 39.2782 5.06355 39.2075 5.06355C32.5317 5.07305 30.778 9.22622 30.778 11.7592C30.778 13.0129 31.1529 14.4739 32.1942 15.6808C31.5437 16.2936 30.6588 17.4333 30.6588 19.0982C30.6588 21.274 32.0468 22.3898 32.0468 22.3898C32.0468 22.3898 30.5475 24.1488 30.5475 26.3141C30.5475 30.4257 33.7742 32 39.2071 32C44.3104 32 47.8759 30.2945 47.8759 26.0614C47.8759 21.5516 44.8032 19.8433 41.2807 19.8433C40.3705 19.8433 37.3645 19.8426 36.2888 19.8426C35.6709 19.8426 35.0621 19.322 35.0621 18.6082C35.0621 18.2009 35.2448 17.9032 35.4849 17.687C36.4421 17.9657 37.5756 18.1269 38.9134 18.1269H39.4998C45.896 18.1269 47.6354 14.4595 47.6354 11.7592C47.6354 10.8114 47.3896 9.63632 46.7324 8.53654C47.3299 8.37961 47.8451 8.22531 48.1971 8.0719C48.4404 7.96616 48.6637 7.71826 48.5776 7.37994C48.345 6.46911 47.8424 4.82094 47.8111 4.70675C47.7363 4.43722 47.4469 4.16663 47.0414 4.28855ZM36.5305 11.6C36.5305 9.52655 37.852 8.39862 39.3037 8.39C40.755 8.39862 41.8829 9.52655 41.8829 11.6C41.8829 13.5328 40.8038 14.7895 39.2064 14.7962C37.6098 14.7895 36.5305 13.5328 36.5305 11.6ZM40.6253 23.7851C42.0653 23.7851 42.7529 24.7169 42.7529 25.899C42.7529 26.9694 42.1925 28.164 39.3657 28.164C36.4345 28.164 35.879 27.0889 35.879 26.1522C35.879 24.621 36.7881 23.7876 36.7881 23.7876C36.7881 23.7876 38.1724 23.7851 40.6253 23.7851ZM7.48425 18.7216C6.42615 18.7216 5.79415 18.3517 5.79415 17.2001V0.591812C5.79415 0.220058 5.46007 -0.0496529 5.0958 0.00770252C3.70073 0.229031 0.68461 0.696319 0.498588 0.725524C0.256525 0.763175 0.000180779 0.975882 0.000180779 1.28729C0.000180779 3.58203 0 13.4181 0 17.8686C0 22.9257 3.80612 23.4045 5.94455 23.4045C7.30275 23.4045 8.25401 23.2203 8.76742 23.0864C9.06335 23.0086 9.2134 22.7723 9.2134 22.5246V19.21C9.2134 18.9088 8.94151 18.5616 8.51957 18.6346C8.2437 18.6823 7.89462 18.7216 7.48425 18.7216ZM22.639 5.3896C22.2755 5.3896 22.043 5.68306 22.043 5.94046C22.043 6.13381 22.0385 16.8746 22.0385 16.8746C21.6205 17.3299 20.2484 18.6736 18.6199 18.6736C17.5893 18.6736 17.1337 18.1787 17.1337 16.853V5.97072C17.1337 5.64154 16.8635 5.3896 16.5242 5.3896H11.9165C11.6471 5.3896 11.3371 5.61111 11.3371 5.9621V17.7997C11.3371 20.6455 12.1775 23.4049 16.1639 23.4049C18.6903 23.4049 20.9061 21.765 22.1663 20.5944C22.3706 21.2797 22.7489 22.5493 22.7797 22.6645C22.8225 22.8225 22.9977 23.0824 23.3473 23.0824H27.2552C27.4611 23.0824 27.8397 22.9256 27.8397 22.4861V5.95119C27.8397 5.65702 27.5815 5.3896 27.2429 5.3896H22.639Z" fill="#313B89"/>
</svg>
