<svg width="171" height="48" viewBox="0 0 171 48" fill="none" xmlns="http://www.w3.org/2000/svg">
<path fill-rule="evenodd" clip-rule="evenodd" d="M158.529 30.532C159.329 31.1993 160.664 31.5997 162.13 31.5997C162.797 31.5997 163.464 31.5997 164.132 31.4663L166.132 31.0676C166.799 30.9324 167.466 30.6655 167.999 30.532C168.4 30.3985 168.799 30.2668 169.065 30.1333C169.2 30.1333 169.2 30.1333 169.2 30.2668L170.4 34.1321C170.4 34.2656 170.4 34.2656 170.267 34.3991C169.732 34.666 169.2 34.9329 168.533 35.1999C167.694 35.4854 166.849 35.7518 165.999 35.9989C165.198 36.2659 164.265 36.3993 163.331 36.5328C162.398 36.6663 161.464 36.6663 160.396 36.6663C158.529 36.6663 156.928 36.3993 155.462 35.9989C154.128 35.6003 152.928 34.9329 152.126 34.1321C151.192 33.3331 150.527 32.1319 150.126 30.7989C149.726 29.466 149.46 27.7327 149.46 25.7324C149.46 23.6004 149.726 21.7319 150.261 20.1337C150.793 18.5321 151.593 17.1992 152.66 16.2667C153.685 15.2278 154.912 14.4108 156.264 13.866C157.73 13.3321 159.331 13.0652 161.198 13.0652C162.799 13.0652 164.133 13.3321 165.333 13.7325C166.4 14.2664 167.333 14.932 168 15.7328C168.717 16.7459 169.258 17.8727 169.601 19.066C170 20.4007 170.135 21.9988 170.135 23.7321V25.332C170.135 25.5989 170.135 25.9993 170 26.2663V26.5332C170 26.6667 169.867 26.6667 169.867 26.6667H157.063C156.93 26.6667 156.93 26.8001 156.93 26.8001V27.1988C157.198 28.6652 157.73 29.8664 158.531 30.532H158.529ZM157.196 23.0665H164.132C164.265 23.0665 164.265 22.9331 164.265 22.9331V22.3992C164.265 20.9328 163.997 19.8668 163.464 19.066C162.93 18.2652 162.13 17.8665 161.063 17.8665C159.73 17.8665 158.795 18.2652 158.13 19.066C157.462 19.8668 157.061 20.9328 157.061 22.5327V22.9313C157.061 22.9313 157.061 23.0665 157.196 23.0665ZM147.059 30.1333C146.658 31.0659 146.259 31.8667 145.591 32.5323C145.059 33.1996 144.259 33.8669 143.458 34.3991C142.658 34.9329 141.591 35.3333 140.523 35.5985C139.208 35.8771 137.867 36.0113 136.523 35.9989H133.321C133.188 35.9989 133.188 35.9989 133.188 36.1324V45.7333C133.188 45.8668 133.055 45.8668 133.055 45.8668L125.985 46.2655C125.852 46.2655 125.852 46.2655 125.852 46.132V13.5991C125.852 13.4656 125.852 13.4656 125.985 13.4656L132.122 13.1987C132.255 13.1987 132.255 13.1987 132.255 13.3321V13.4656C132.255 13.5991 132.388 13.866 132.388 13.9995C132.388 14.1329 132.521 14.3981 132.521 14.5333V14.7985C132.521 14.932 132.654 15.1989 132.654 15.4659L132.787 16.2667C132.787 16.4001 132.92 16.4001 132.92 16.2667L133.456 15.7328C134.521 14.7985 135.454 13.9995 136.654 13.6008C137.805 13.1624 139.026 12.9363 140.257 12.9335C141.456 12.9335 142.525 13.1987 143.458 13.5991C144.392 13.9977 145.192 14.6668 145.858 15.4659C146.525 16.4001 147.059 17.4661 147.458 18.9325C147.859 20.3989 148.126 22.1323 148.126 24.1325C148.126 25.1985 147.993 26.2645 147.859 27.3323C147.717 28.2973 147.448 29.2392 147.059 30.1333ZM140.39 21.9988C140.257 21.1997 139.991 20.5324 139.589 19.9985C139.19 19.4664 138.789 19.066 138.257 18.7991C137.762 18.5424 137.213 18.4058 136.656 18.4004C135.989 18.4004 135.454 18.5321 134.789 18.7991C134.255 19.066 133.721 19.3329 133.188 19.7333L133.055 19.8668C133.055 19.8668 132.92 19.9985 132.92 20.132V31.0659C132.92 31.1993 132.92 31.1993 133.055 31.1993H133.321C133.454 31.1993 133.721 31.3328 133.989 31.3328C134.255 31.3328 134.388 31.4663 134.654 31.4663C134.922 31.4663 135.19 31.4663 135.321 31.5997H135.989C136.789 31.5997 137.456 31.4663 137.989 31.1993C138.656 30.9324 139.057 30.532 139.456 29.8647C139.856 29.3325 140.124 28.5335 140.257 27.7327C140.43 26.7191 140.519 25.6929 140.523 24.6647C140.656 23.7321 140.656 22.7996 140.39 21.9988ZM113.448 41.0655C113.047 42.1332 112.515 42.9323 111.981 43.7331C111.448 44.3987 110.781 45.066 109.981 45.5999C109.18 46.132 108.247 46.3989 107.045 46.6659C106.112 46.9328 104.912 47.0645 103.712 47.1997C103.578 47.1997 103.578 47.1997 103.578 47.0663C103.578 46.7993 103.444 46.5324 103.444 46.2655C103.311 45.8668 103.311 45.5999 103.178 45.4664L102.912 44.1317C102.912 43.8665 102.777 43.5996 102.644 43.1992C102.644 42.9323 102.511 42.6653 102.511 42.4001C102.511 42.2667 102.511 42.2667 102.644 42.2667C103.444 42.1332 103.979 41.9997 104.511 41.8663C105.159 41.7251 105.787 41.5008 106.378 41.1989C106.914 40.932 107.312 40.6668 107.579 40.2664C107.846 39.866 108.114 39.4656 108.247 39.0652L109.18 36.6663V36.3993L101.31 13.7325C101.31 13.5991 101.31 13.5991 101.443 13.5991H108.38C108.513 13.5991 108.513 13.7325 108.513 13.7325L112.914 27.8661C112.914 27.9996 113.047 27.9996 113.047 27.8661L117.715 13.7325C117.715 13.5991 117.85 13.5991 117.983 13.5991H123.852C123.985 13.5991 123.985 13.5991 123.985 13.7325L113.448 41.0672V41.0655ZM97.3092 36.1324C95.9764 36.3993 94.5088 36.5311 92.6418 36.5311C91.5735 36.5311 90.64 36.3993 89.7065 36.2659C88.9061 35.9989 88.2406 35.732 87.7064 35.1999C87.1723 34.7995 86.7729 34.1321 86.5067 33.4665C86.2388 32.6657 86.1057 31.7332 86.1057 30.6655V18.6673C86.1057 18.5339 85.9726 18.5339 85.9726 18.5339L83.5714 18.2669C83.4383 18.2669 83.4383 18.1352 83.4383 18.1352L83.8376 13.866C83.8376 13.7325 83.9725 13.7325 83.9725 13.7325H86.2388C86.3719 13.7325 86.3719 13.5991 86.3719 13.5991L87.1723 6.93266C87.1723 6.79919 87.3054 6.79919 87.3054 6.79919L93.3074 6.26532C93.4422 6.26532 93.4422 6.26532 93.4422 6.39879V13.7325C93.4422 13.866 93.5753 13.866 93.5753 13.866H99.4442C99.5773 13.866 99.5773 13.9995 99.5773 13.9995L99.1762 18.3987C99.1762 18.5321 99.0431 18.5321 99.0431 18.5321H93.7084C93.5753 18.5321 93.5753 18.5321 93.5753 18.6656V30.4003C93.5753 30.7989 93.7084 31.0659 93.9746 31.3328C94.2426 31.4663 94.5088 31.5997 94.9081 31.5997H95.8416C96.2426 31.5997 96.642 31.4663 97.043 31.4663C97.4424 31.4663 97.8434 31.3328 98.2427 31.1993C98.3758 31.1993 98.5107 31.1993 98.6438 31.0659C98.7769 31.0659 98.7769 31.0659 98.7769 31.1993L99.8435 35.1999C99.8435 35.3333 99.8435 35.3333 99.7104 35.4668C99.1762 35.5985 98.3758 35.8655 97.3092 36.1324ZM81.4382 6.13186C80.3699 5.86666 79.4364 5.86666 78.6378 5.86666C78.3698 5.86666 78.1019 5.86666 77.9705 6.00012C77.7025 6.13186 77.5694 6.26532 77.4363 6.39879C77.2696 6.58135 77.1749 6.81861 77.1701 7.06612V13.4656C77.1701 13.5991 77.3032 13.5991 77.3032 13.5991H81.7044C81.8375 13.5991 81.8375 13.7325 81.8375 13.7325L81.4382 18.1335C81.4382 18.2652 81.3051 18.2652 81.3051 18.2652H77.3032C77.1701 18.2652 77.1701 18.2652 77.1701 18.3987V35.8655C77.1701 35.9989 77.037 35.9989 77.037 35.9989H70.1015C69.9667 35.9989 69.9667 35.8655 69.9667 35.8655V18.3987C69.9667 18.2652 69.8336 18.2652 69.8336 18.2652L67.4324 18.1335C67.2993 18.1335 67.2993 18 67.2993 18L67.7004 13.7325C67.7004 13.5991 67.8335 13.5991 67.8335 13.5991H69.8336C69.9667 13.5991 69.9667 13.4656 69.9667 13.4656V8.39906C69.9667 7.06439 70.1015 5.86666 70.3677 4.93239C70.634 3.99986 71.035 3.19906 71.5674 2.66519C72.1016 2.13306 72.7689 1.59919 73.7024 1.33226C74.6359 1.06533 75.7024 0.933594 77.1701 0.933594C77.7025 0.933594 78.2367 0.933594 78.7709 1.06533C79.3033 1.06533 79.8375 1.19879 80.3699 1.19879C80.9058 1.33226 81.4382 1.33226 81.9707 1.46573C82.2386 1.46573 82.3717 1.59919 82.6379 1.59919C82.771 1.59919 82.771 1.73266 82.771 1.73266L81.9707 6.00012C81.5713 6.13186 81.5713 6.13186 81.4382 6.13186ZM63.9647 36.1324H57.0292C56.8961 36.1324 56.8961 35.9989 56.8961 35.9989V13.866C56.8961 13.7325 57.0292 13.7325 57.0292 13.7325L63.9647 13.4656C64.0995 13.4656 64.0995 13.4656 64.0995 13.5991V36.0007C64.2326 36.0007 64.0995 36.1341 63.9647 36.1341V36.1324ZM63.8316 9.19986H57.1641C57.0292 9.19986 57.0292 9.06639 57.0292 9.06639V3.46599C57.0292 3.33252 57.1641 3.33252 57.1641 3.33252H63.8316C63.9647 3.33252 63.9647 3.46599 63.9647 3.46599V9.06466C63.9647 9.19986 63.9647 9.19986 63.8316 9.19986ZM47.9623 35.8655C47.9623 35.9989 47.8292 35.9989 47.8292 35.9989H41.6924C41.5592 35.9989 41.5593 35.8655 41.5593 35.8655C41.1599 34.3991 38.3595 23.3335 37.9584 21.8653C37.9584 21.7319 37.9584 21.7319 37.8253 21.8653L32.8899 35.8655C32.8899 35.9989 32.7568 35.9989 32.6237 35.9989H27.2872C27.1541 35.9989 27.1541 35.8655 27.1541 35.8655L21.1504 13.5991C21.1504 13.4656 21.1504 13.4656 21.2835 13.4656H27.6848C27.818 13.4656 27.818 13.5991 27.818 13.5991C28.0859 14.9337 30.487 25.8659 30.7533 27.1988C30.7533 27.3323 30.7533 27.3323 30.8864 27.1988L35.4207 13.7325C35.4207 13.5991 35.5538 13.5991 35.6886 13.5991L41.0234 13.3321C41.1565 13.3321 41.1565 13.3321 41.1565 13.4656C41.4227 14.8003 44.09 25.7324 44.358 27.1988C44.358 27.3323 44.358 27.3323 44.4911 27.1988L48.7592 13.4656C48.7592 13.3321 48.8923 13.3321 48.8923 13.3321H54.7612C54.8943 13.3321 54.8943 13.4656 54.8943 13.4656L47.9588 35.8655H47.9623ZM17.0189 34.3991C16.2185 35.0664 15.1519 35.5985 13.9505 35.9989C12.7508 36.3993 11.2831 36.5328 9.68233 36.5328C8.0833 36.5328 6.34943 36.3993 4.88178 36.1341C3.57166 35.8577 2.27965 35.5011 1.01299 35.0664C0.879884 35.0664 0.879883 34.9329 0.879883 34.7995L1.94648 30.1333C1.94648 29.9999 2.08131 29.9999 2.08131 29.9999C2.48064 30.1333 3.0148 30.3985 3.54724 30.532C4.34762 30.7989 5.148 30.9324 5.9501 31.0659C6.74876 31.1993 7.41603 31.3328 8.21468 31.4645C8.88195 31.5997 9.54922 31.5997 10.2165 31.5997C11.0169 31.5997 11.6842 31.4663 12.2166 31.1993C12.8839 30.8007 13.017 30.2668 13.017 29.8647C13.017 29.5995 13.017 29.466 12.8839 29.1991C12.7508 28.9321 12.6177 28.8004 12.4845 28.5335C12.3514 28.4 12.0835 28.1331 11.6842 27.9996C11.2983 27.8261 10.8957 27.6925 10.4827 27.6009C9.1499 27.3323 8.0833 26.9319 7.14808 26.6649C6.30514 26.4166 5.49842 26.0582 4.74867 25.5989C4.0814 25.2003 3.54724 24.7999 3.28102 24.5329C2.92921 24.1667 2.61637 23.7647 2.34753 23.3335C2.09363 22.9342 1.95483 22.4723 1.94648 21.9988C1.81337 21.4667 1.81337 20.9328 1.81337 20.3989C1.81337 19.5999 1.94648 18.7991 2.08131 18.1335C2.34753 17.4661 2.61375 16.7988 3.0148 16.2667C3.41413 15.7328 3.81518 15.1989 4.34762 14.7985C4.88178 14.3999 5.54905 13.9995 6.21459 13.7325C6.88186 13.4656 7.54913 13.1987 8.34951 13.0652C9.14989 12.9335 9.95028 12.8 10.7507 12.8C11.4162 12.8 12.2166 12.8 12.8839 12.9335C13.5511 12.9335 14.3515 13.0652 15.0188 13.1987C15.6843 13.3321 16.4847 13.4656 17.2851 13.7325C17.8193 13.866 18.4865 14.1312 19.019 14.3999C19.1521 14.3999 19.1521 14.5333 19.1521 14.6668L17.6862 19.1995C17.6862 19.3329 17.553 19.3329 17.553 19.3329C17.2851 19.1995 16.8858 19.066 16.4847 18.9343C15.9523 18.7991 15.285 18.6656 14.7508 18.5321H14.4846C13.9505 18.3987 13.2849 18.2652 12.7508 18.2652C12.2166 18.1335 11.6842 18.1335 11.2831 18.1335C10.4827 18.1335 9.95027 18.2652 9.41611 18.5321C9.01679 18.7991 8.74884 19.3329 8.74884 19.8668C8.74884 20.132 8.74884 20.3989 8.88195 20.6659C9.03272 20.9503 9.26518 21.1828 9.54922 21.3332C9.81717 21.4667 10.2165 21.7319 10.7507 21.8653C11.2831 21.9988 11.8173 22.2657 12.6177 22.3992C13.9505 22.7979 15.1519 23.2 16.0854 23.5987C17.0189 23.9991 17.6861 24.5329 18.2186 25.0668C18.7527 25.5989 19.1521 26.1328 19.2869 26.8001C19.5531 27.4657 19.5531 28.2665 19.5531 29.0656C19.5531 30.1333 19.2869 31.1993 18.8859 32.1336C18.4865 32.9327 17.8193 33.7335 17.0189 34.3991Z" fill="#F84934"/>
</svg>
