<svg width="70" height="100" viewBox="0 0 70 100" fill="none" xmlns="http://www.w3.org/2000/svg">
<path fill-rule="evenodd" clip-rule="evenodd" d="M15.9905 4.7619C9.79126 4.7619 4.66715 10.0356 4.66715 16.6667V83.3333C4.66715 89.9643 9.79127 95.2381 15.9905 95.2381H44.8665C62.9605 95.2381 72.2719 72.2148 59.2909 58.6361L55.8527 55.0395L55.8334 55.0195C53.1813 52.2343 53.1845 47.7514 55.8432 44.9704L59.2909 41.3639C72.2719 27.7852 62.9605 4.7619 44.8665 4.7619H15.9905ZM0 16.6667C0 7.51818 7.10473 0 15.9905 0H44.8665C67.3294 0 78.3288 28.2692 62.6319 44.6888L59.1842 48.2953C58.2935 49.2271 58.2904 50.7601 59.1758 51.6958L59.1843 51.7046L62.6319 55.3112C78.3288 71.7308 67.3294 100 44.8665 100H15.9905C7.10472 100 0 92.4817 0 83.3333V16.6667ZM15.9905 14.2857C14.8196 14.2857 13.7718 15.2954 13.7718 16.6667V83.3333C13.7718 84.7047 14.8195 85.7143 15.9905 85.7143H44.8665C54.8491 85.7143 60.0984 72.9496 52.8529 65.3705L49.4063 61.7651L49.3986 61.7571C48.5365 60.8625 47.1683 60.8645 46.3083 61.764L45.5272 62.5811C35.3755 73.2001 18.2093 65.5521 18.2093 50.817V16.6667C18.2093 15.2954 17.1614 14.2857 15.9905 14.2857ZM9.10463 16.6667C9.10463 12.778 12.1331 9.52381 15.9905 9.52381C19.848 9.52381 22.8764 12.778 22.8764 16.6667V50.817C22.8764 61.5364 35.1311 66.636 42.1862 59.2561L42.9673 58.439C45.6542 55.6284 50.0311 55.6213 52.7266 58.4186L51.0631 60.0874L52.7189 58.4106L52.7266 58.4186L52.732 58.4243L52.7398 58.4323L52.7463 58.439L56.194 62.0456C66.1553 72.4655 59.218 90.4762 44.8665 90.4762H15.9905C12.1332 90.4762 9.10463 87.2223 9.10463 83.3333V16.6667ZM27.3139 16.6667C27.3139 12.778 30.3424 9.52381 34.1998 9.52381H44.8665C59.218 9.52381 66.1553 27.5345 56.194 37.9545L52.7463 41.561L46.3083 48.2953L39.0893 55.8467C34.6732 60.4662 27.3139 57.0672 27.3139 50.817V16.6667ZM34.1998 14.2857C33.0289 14.2857 31.981 15.2954 31.981 16.6667V50.817C31.981 53.0517 34.4288 53.9019 35.7482 52.5217L36.5293 51.7047L42.9673 44.9704L52.8529 34.6295C60.0984 27.0505 54.8491 14.2857 44.8665 14.2857H34.1998Z" fill="black"/>
</svg>
